<?xml version="1.0" standalone="no"?>
<!DOCTYPE svg PUBLIC "-//W3C//DTD SVG 20010904//EN"
 "http://www.w3.org/TR/2001/REC-SVG-20010904/DTD/svg10.dtd">
<svg version="1.0" xmlns="http://www.w3.org/2000/svg"
 width="320.000000pt" height="320.000000pt" viewBox="0 0 320.000000 320.000000"
 preserveAspectRatio="xMidYMid meet">
<metadata>
Created by potrace 1.14, written by Peter Selinger 2001-2017
</metadata>
<g transform="translate(0.000000,320.000000) scale(0.100000,-0.100000)"
fill="#000000" stroke="none">
<path d="M578 2492 c-360 -2 -368 -3 -368 -22 0 -19 7 -20 135 -20 l135 0 0
-855 0 -855 -135 0 c-128 0 -135 -1 -135 -20 0 -20 7 -20 303 -22 166 -2 361
-2 432 -2 72 1 336 2 588 2 454 1 457 1 457 21 0 20 -6 21 -125 21 l-125 0 0
441 c0 271 4 439 9 437 6 -1 177 -199 380 -438 l371 -435 -107 -5 c-92 -4
-108 -8 -111 -23 -3 -16 19 -17 363 -17 344 0 366 1 363 17 -3 15 -18 19 -89
23 l-86 5 -447 512 c-246 282 -448 515 -448 519 0 4 140 157 313 340 l314 334
108 0 c100 0 107 1 107 20 0 19 -7 20 -260 20 -252 0 -260 -1 -260 -20 0 -18
8 -20 125 -22 l126 -3 -374 -395 c-206 -217 -380 -396 -386 -398 -8 -3 -11
106 -11 397 l0 401 125 0 c118 0 125 1 125 20 0 20 -7 20 -389 20 -267 0 -390
-3 -393 -11 -2 -7 -23 -7 -68 0 -94 15 -154 16 -562 13z m492 -53 c148 -53
205 -159 205 -379 0 -191 -42 -292 -145 -350 -42 -23 -55 -25 -217 -28 l-173
-4 0 385 c0 299 3 387 13 391 22 10 281 -2 317 -15z m410 -62 l0 -74 -41 38
c-22 20 -70 53 -107 73 l-67 35 108 1 107 0 0 -73z m-2 -767 l-3 -81 -45 29
c-64 40 -142 69 -239 90 l-83 18 63 12 c84 15 193 69 254 124 l50 46 3 -79 c2
-43 2 -115 0 -159z m-361 15 c141 -42 218 -167 230 -375 12 -197 -27 -343
-111 -426 -77 -75 -116 -86 -323 -92 l-173 -4 0 456 0 456 163 0 c116 0 178
-4 214 -15z m363 -835 l0 -50 -92 0 -93 0 52 24 c29 14 69 36 90 50 21 14 39
26 40 26 2 0 3 -22 3 -50z"/>
</g>
</svg>
